<svg xmlns="http://www.w3.org/2000/svg" version="1.1" xmlns:xlink="http://www.w3.org/1999/xlink" xmlns:svgjs="http://svgjs.com/svgjs" width="1657" height="950" preserveAspectRatio="none" viewBox="0 0 1657 950"><g mask="url(&quot;#SvgjsMask1000&quot;)" fill="none"><rect width="1657" height="950" x="0" y="0" fill="rgba(26, 29, 31, 1)"></rect><path d="M0,562.618C103.955,569.971,204.434,504.862,275.419,428.56C339.501,359.678,328.999,253.672,367.344,167.76C405.217,82.905,506.98,20.851,498.696,-71.702C490.43,-164.054,389.846,-215.176,326.969,-283.321C266.312,-349.059,215.331,-422.393,136.359,-464.395C44.611,-513.191,-65.045,-586.029,-159.098,-541.838C-256.183,-496.222,-255.358,-357.307,-299.564,-259.573C-330.417,-191.362,-350.662,-123.652,-379.498,-54.564C-420.219,42.999,-533.146,128.541,-503.968,230.155C-475.841,328.106,-336.535,335.177,-251.469,391.294C-165.054,448.301,-103.267,555.314,0,562.618" fill="#141618"></path><path d="M1657 1446.058C1748.485 1461.187 1829.518 1389.895 1908.867 1341.913 1990.329 1292.653 2082.119 1248.749 2124.371 1163.441 2167.07 1077.231 2167.616 972.223 2137.172 880.962 2108.935 796.316 2032.353 741.45 1964.333 683.6949999999999 1905.518 633.755 1839.329 600.236 1769.051 568.389 1687.271 531.329 1608.597 470.05 1519.634 482.173 1427.406 494.741 1343.716 556.271 1291.673 633.442 1241.9189999999999 707.219 1245.493 801.668 1244.167 890.644 1242.9850000000001 969.9110000000001 1245.849 1050.891 1284.417 1120.153 1321.4470000000001 1186.651 1396.2359999999999 1216.501 1453.525 1266.613 1522.999 1327.383 1565.935 1430.998 1657 1446.058" fill="#202426"></path></g><defs><mask id="SvgjsMask1000"><rect width="1657" height="950" fill="#ffffff"></rect></mask></defs></svg>