<svg xmlns="http://www.w3.org/2000/svg" version="1.1" xmlns:xlink="http://www.w3.org/1999/xlink" xmlns:svgjs="http://svgjs.com/svgjs" width="1920" height="1080" preserveAspectRatio="none" viewBox="0 0 1920 1080"><g mask="url(&quot;#SvgjsMask1022&quot;)" fill="none"><rect width="1920" height="1080" x="0" y="0" fill="rgba(26, 29, 31, 1)"></rect><path d="M0,570.239C117.67,569.391,246.774,601.573,344.115,535.454C441.073,469.596,463.993,340.132,502.001,229.256C536.596,128.336,558.712,26.821,555.024,-79.8C550.976,-196.836,537.089,-313.581,479.694,-415.657C413.754,-532.929,338.798,-680.591,205.799,-700.889C70.201,-721.583,-20.736,-556.9,-150.278,-511.801C-270.162,-470.065,-419.991,-529.507,-518.045,-448.888C-618.137,-366.594,-659.867,-224.131,-657.743,-94.569C-655.739,27.645,-560.57,121.677,-506.888,231.488C-454.931,337.772,-445.678,474.702,-347.317,540.436C-248.71,606.335,-118.597,571.094,0,570.239" fill="#141618"></path><path d="M1920 1506.909C2005.319 1495.2640000000001 2087.96 1494.643 2170.319 1469.504 2280.161 1435.976 2440.631 1443.656 2480.302 1335.881 2521.1059999999998 1225.027 2385.782 1127.212 2335.693 1020.232 2301.763 947.764 2280.174 873.366 2233.364 808.469 2182.537 738.0029999999999 2135.022 655.8340000000001 2052.736 627.943 1969.612 599.768 1881.54 637.556 1796.824 660.502 1710.316 683.933 1615.399 697.559 1554.149 762.989 1492.1019999999999 829.27 1489.209 927.034 1465.3229999999999 1014.627 1437.788 1115.599 1373.758 1215.556 1403.3600000000001 1315.941 1433.76 1419.033 1520.73 1507.142 1621.5439999999999 1544.406 1717.536 1579.888 1818.6 1520.749 1920 1506.909" fill="#202426"></path></g><defs><mask id="SvgjsMask1022"><rect width="1920" height="1080" fill="#ffffff"></rect></mask></defs></svg>