<svg xmlns="http://www.w3.org/2000/svg" version="1.1" xmlns:xlink="http://www.w3.org/1999/xlink" xmlns:svgjs="http://svgjs.com/svgjs" width="1657" height="820" preserveAspectRatio="none" viewBox="0 0 1657 820"><g mask="url(&quot;#SvgjsMask1006&quot;)" fill="none"><rect width="1657" height="820" x="0" y="0" fill="rgba(26, 29, 31, 1)"></rect><path d="M0,525.272C96.018,536.761,162.756,428.744,232.463,361.719C290.553,305.864,325.805,236.284,370.375,169.144C424.517,87.585,524.69,22.751,522.449,-75.117C520.213,-172.767,440.775,-257.417,359.369,-311.395C285.9,-360.11,190.872,-340.379,103.604,-352.841C30.751,-363.245,-40.312,-398.485,-111.164,-378.59C-182.346,-358.603,-227.494,-294.266,-282.185,-244.514C-344.874,-187.486,-433.137,-147.252,-455.363,-65.471C-478.01,17.858,-446.694,110.438,-398.042,181.78C-352.693,248.278,-260.201,257.477,-199.265,310.062C-123.719,375.255,-99.079,513.417,0,525.272" fill="#141618"></path><path d="M1657 1362.46C1790.179 1366.299 1926.968 1485.855 2044.021 1422.216 2159.717 1359.3139999999999 2166.037 1195.0729999999999 2199.263 1067.643 2227.565 959.096 2237.533 849.86 2222.232 738.732 2206.855 627.052 2189.775 507.251 2111 426.607 2033.587 347.357 1912.463 343.195 1805.9850000000001 312.604 1700.201 282.212 1598.492 236.53300000000002 1489.019 247.909 1365.829 260.711 1241.938 297.67100000000005 1150.094 380.763 1052.609 468.959 979.095 589.862 966.423 720.71 953.964 849.351 1027.405 965.4490000000001 1082.129 1082.535 1136.368 1198.5810000000001 1168.8899999999999 1344.23 1284.058 1400.309 1398.722 1456.143 1529.518 1358.7849999999999 1657 1362.46" fill="#202426"></path></g><defs><mask id="SvgjsMask1006"><rect width="1657" height="820" fill="#ffffff"></rect></mask></defs></svg>