<svg xmlns="http://www.w3.org/2000/svg" version="1.1" xmlns:xlink="http://www.w3.org/1999/xlink" xmlns:svgjs="http://svgjs.com/svgjs" width="1657" height="950" preserveAspectRatio="none" viewBox="0 0 1657 950">
    <g mask="url(&quot;#SvgjsMask1001&quot;)" fill="none">
        <rect width="1657" height="950" x="0" y="0" fill="rgba(26, 29, 31, 1)"></rect>
        <path d="M0,704.619C131.305,742.822,274.223,679.633,389.784,606.516C505.81,533.105,589.205,420.019,646.797,295.382C704.571,170.35,743.335,32.14,717.723,-103.193C692.616,-235.856,600.272,-341.642,507.645,-439.877C418.238,-534.697,323.433,-648.589,193.534,-659.118C65.715,-669.478,-23.714,-535.308,-144.685,-492.751C-256.391,-453.454,-409.256,-511.283,-485.131,-420.368C-561.252,-329.159,-500.638,-190.089,-496.361,-71.366C-492.876,25.387,-503.649,123.582,-462.381,211.162C-421.387,298.162,-332.742,345.254,-266.982,415.433C-175.422,513.146,-128.576,667.211,0,704.619" fill="#141618"></path>
        <path d="M1657 1541.034C1796.927 1540.5030000000002 1937.923 1642.9099999999999 2065.805 1586.112 2195.645 1528.444 2280.091 1387.813 2313.099 1249.63 2343.964 1120.417 2272.879 994.613 2237.696 866.509 2207.147 755.28 2178.175 648.268 2120.501 548.374 2051.208 428.356 2005.125 254.01800000000003 1869.016 227.94100000000003 1729.672 201.24400000000003 1640.938 391.72900000000004 1504.414 430.33799999999997 1365.605 469.594 1184.259 350.17600000000004 1080.914 450.818 980.057 549.038 1081.979 725.126 1059.075 864.031 1035.458 1007.26 908.72 1134.606 944.989 1275.165 981.979 1418.52 1107.501 1537.432 1246.1970000000001 1589.222 1378.029 1638.449 1516.278 1541.568 1657 1541.034" fill="#202426"></path>
    </g>
    <defs>
        <mask id="SvgjsMask1001">
            <rect width="1657" height="950" fill="#ffffff"></rect>
        </mask>
    </defs>
</svg>